<mxfile host="app.diagrams.net" modified="2022-11-25T13:49:35.251Z" agent="5.0 (Macintosh; Intel Mac OS X 10_15_7) AppleWebKit/537.36 (KHTML, like Gecko) Chrome/107.0.0.0 Safari/537.36" etag="e8xwB3kzfS9br16qjxGx" version="20.5.3" type="github">
  <diagram id="H2WtatcNhz01F_n0QGNE" name="Page-1">
    <mxGraphModel dx="2066" dy="1153" grid="1" gridSize="10" guides="1" tooltips="1" connect="1" arrows="1" fold="1" page="1" pageScale="1" pageWidth="827" pageHeight="1169" math="0" shadow="0">
      <root>
        <mxCell id="0" />
        <mxCell id="1" parent="0" />
        <mxCell id="dUSVIqa795fDTfOYoMg1-5" value="&lt;p style=&quot;margin: 4px 0px 0px; text-align: center;&quot;&gt;7 Ashton Rd: House&lt;/p&gt;&lt;hr&gt;&lt;p style=&quot;margin:0px;margin-left:8px;&quot;&gt;Address: 7 Ashton Rd&lt;/p&gt;&lt;p style=&quot;margin:0px;margin-left:8px;&quot;&gt;&lt;br&gt;&lt;/p&gt;&lt;p style=&quot;margin:0px;margin-left:8px;&quot;&gt;Occupants: [&quot;Jill&quot;, &quot;Nicola&quot;,&amp;nbsp;&lt;span style=&quot;background-color: initial;&quot;&gt;&quot;Andrew&quot;,&amp;nbsp;&lt;/span&gt;&lt;/p&gt;&lt;p style=&quot;margin:0px;margin-left:8px;&quot;&gt;&lt;span style=&quot;background-color: initial;&quot;&gt;&quot;Evie&quot;, &quot;Margie&quot;,&amp;nbsp;&lt;/span&gt;&lt;span style=&quot;background-color: initial;&quot;&gt;&quot;Dugie&quot;&lt;/span&gt;&lt;/p&gt;&lt;p style=&quot;margin:0px;margin-left:8px;&quot;&gt;&lt;br&gt;&lt;/p&gt;&lt;p style=&quot;margin:0px;margin-left:8px;&quot;&gt;Single-storey: False&lt;/p&gt;" style="verticalAlign=top;align=left;overflow=fill;fontSize=12;fontFamily=Helvetica;html=1;" vertex="1" parent="1">
          <mxGeometry x="120" y="150" width="220" height="150" as="geometry" />
        </mxCell>
        <mxCell id="dUSVIqa795fDTfOYoMg1-7" value="&lt;p style=&quot;margin: 4px 0px 0px; text-align: center;&quot;&gt;Kitchen: Room&lt;/p&gt;&lt;hr&gt;&lt;p style=&quot;margin:0px;margin-left:8px;&quot;&gt;Type: &quot;Utility&quot;&lt;/p&gt;&lt;p style=&quot;margin:0px;margin-left:8px;&quot;&gt;&lt;br&gt;&lt;/p&gt;&lt;p style=&quot;margin:0px;margin-left:8px;&quot;&gt;Plumbed: True&lt;/p&gt;&lt;p style=&quot;margin:0px;margin-left:8px;&quot;&gt;&lt;br&gt;&lt;/p&gt;&lt;p style=&quot;margin:0px;margin-left:8px;&quot;&gt;Doors: 4&lt;/p&gt;" style="verticalAlign=top;align=left;overflow=fill;fontSize=12;fontFamily=Helvetica;html=1;" vertex="1" parent="1">
          <mxGeometry x="145" y="380" width="170" height="120" as="geometry" />
        </mxCell>
        <mxCell id="dUSVIqa795fDTfOYoMg1-13" value="Nicola: Occupant" style="swimlane;fontStyle=0;align=center;verticalAlign=top;childLayout=stackLayout;horizontal=1;startSize=26;horizontalStack=0;resizeParent=1;resizeLast=0;collapsible=1;marginBottom=0;rounded=0;shadow=0;strokeWidth=1;" vertex="1" parent="1">
          <mxGeometry x="460" y="170" width="160" height="110" as="geometry">
            <mxRectangle x="550" y="140" width="160" height="26" as="alternateBounds" />
          </mxGeometry>
        </mxCell>
        <mxCell id="dUSVIqa795fDTfOYoMg1-14" value="Name: &quot;Nicola&quot;" style="text;align=left;verticalAlign=top;spacingLeft=4;spacingRight=4;overflow=hidden;rotatable=0;points=[[0,0.5],[1,0.5]];portConstraint=eastwest;rounded=0;shadow=0;html=0;" vertex="1" parent="dUSVIqa795fDTfOYoMg1-13">
          <mxGeometry y="26" width="160" height="26" as="geometry" />
        </mxCell>
        <mxCell id="dUSVIqa795fDTfOYoMg1-15" value="Age: 33" style="text;align=left;verticalAlign=top;spacingLeft=4;spacingRight=4;overflow=hidden;rotatable=0;points=[[0,0.5],[1,0.5]];portConstraint=eastwest;rounded=0;shadow=0;html=0;" vertex="1" parent="dUSVIqa795fDTfOYoMg1-13">
          <mxGeometry y="52" width="160" height="28" as="geometry" />
        </mxCell>
        <mxCell id="dUSVIqa795fDTfOYoMg1-16" value="Employed: True" style="text;align=left;verticalAlign=top;spacingLeft=4;spacingRight=4;overflow=hidden;rotatable=0;points=[[0,0.5],[1,0.5]];portConstraint=eastwest;rounded=0;shadow=0;html=0;" vertex="1" parent="dUSVIqa795fDTfOYoMg1-13">
          <mxGeometry y="80" width="160" height="30" as="geometry" />
        </mxCell>
        <mxCell id="dUSVIqa795fDTfOYoMg1-29" value="" style="edgeStyle=orthogonalEdgeStyle;rounded=0;orthogonalLoop=1;jettySize=auto;html=1;endArrow=open;endFill=0;" edge="1" parent="1">
          <mxGeometry relative="1" as="geometry">
            <Array as="points">
              <mxPoint x="229.5" y="378" />
              <mxPoint x="229.5" y="378" />
            </Array>
            <mxPoint x="229.5" y="378" as="sourcePoint" />
            <mxPoint x="229.5" y="300" as="targetPoint" />
          </mxGeometry>
        </mxCell>
        <mxCell id="dUSVIqa795fDTfOYoMg1-32" value="" style="endArrow=open;shadow=0;strokeWidth=1;rounded=0;endFill=1;edgeStyle=elbowEdgeStyle;elbow=vertical;" edge="1" parent="1">
          <mxGeometry x="0.5" y="41" relative="1" as="geometry">
            <mxPoint x="460" y="230" as="sourcePoint" />
            <mxPoint x="340" y="232" as="targetPoint" />
            <mxPoint x="-40" y="32" as="offset" />
            <Array as="points">
              <mxPoint x="450" y="232" />
              <mxPoint x="180" y="232" />
              <mxPoint x="370" y="232" />
            </Array>
          </mxGeometry>
        </mxCell>
      </root>
    </mxGraphModel>
  </diagram>
</mxfile>
